<?xml version="1.0" encoding="UTF-8"?>
<svg id="_圖層_1" data-name="圖層_1" xmlns="http://www.w3.org/2000/svg" version="1.1" viewBox="0 0 400 199.62">
  <!-- Generator: Adobe Illustrator 30.2.1, SVG Export Plug-In . SVG Version: 2.1.1 Build 1)  -->
  <defs>
    <style>
      .st0 {
        fill: #73b649;
      }

      .st1 {
        fill: #25a9e0;
      }

      .st2 {
        fill: #e76e33;
      }

      .st3 {
        fill: #1a1a1a;
      }
    </style>
  </defs>
  <path class="st3" d="M85.89,170.56l-7.02,3.33,12.24,25.37,7.5-3.57-12.24-25.36-.49.23ZM57.99,199.29h8.46v-26.75h-8.46v26.75ZM106.38,134.8l22.27-29.1-6.52-5.16-22.26,29.1.41.33,6.1,4.84ZM100.5,151.58l6.1,4.6.33-.42c2.05-2.61,4.57-6.01,6.74-8.88v52.74h8.36v-77.36l-21.95,29,.43.33ZM11.88,170.57l-.18.51c-3.2,8.74-7.04,16.62-11.4,23.76l-.29.47,7.24,4.3.28-.46c4.62-7.62,8.7-16,12.13-25.12l.19-.51-.51-.19-7.46-2.76ZM293.28,131.07c-7.44,11.9-16.56,19.74-26.53,24.84l-.48.25,3.81,7.38.48-.24c11.21-5.6,21.35-14.35,29.74-27.69l.28-.45-.44-.29-6.56-4.26-.29.46ZM292.74,101.29l-.31.45c-7.01,10.31-15.17,17.08-24.28,21.43l-.49.23,3.69,7.5.48-.23c10.45-5.06,19.85-12.73,27.6-24.14l.3-.45-.44-.3-6.54-4.48ZM396.68,109.42h-38.83v-8.98h-8.36v8.98h-38.72v8.36h85.91v-8.36ZM31.88,199.29h8.35v-26.75h-8.35v26.75ZM91.68,165.81l6.75-5.03-29.22-40.12h26.65v-8.35h-42.58v-12.19h-8.36v12.19H2.46v8.35h29.64c-7.53,15.6-17.73,27.69-31.66,37.86l-.44.32,5.03,6.75.43-.31c15.92-11.64,27.51-25.76,35.87-44.62h3.6v46.21h8.36v-46.21h5.6l32.79,45.15ZM258.66,165.8v-6.63c0-5.44-4.51-10.06-10.06-10.06h-30.92c-5.45.01-10.05,4.62-10.06,10.06v6.63c0,5.55,4.62,10.06,10.06,10.06h11.33v11.34c0,2.04-1.66,3.62-3.74,3.63h-4.39v8.36h4.39c6.61,0,12.09-5.37,12.1-11.99v-11.34h11.23c5.54,0,10.06-4.52,10.06-10.06ZM217.68,167.51c-1-.01-1.69-.7-1.71-1.71v-6.63c.01-1,.71-1.69,1.71-1.71h30.92c1,.01,1.69.7,1.71,1.71v6.63c-.01,1-.7,1.69-1.71,1.71h-30.92ZM133.93,166.62l-.05.53c-.96,10.65-3.3,19.9-6.6,28.96l-.18.5,7.86,2.95.19-.51c3.54-9.66,6.12-19.66,7.09-31.27l.05-.54-.54-.04-7.8-.58ZM384.86,122.04l-.52-.18-7.35-2.53-5.61,15.44h-35.3l-5.73-15.56-7.86,2.95,4.62,12.61h-19.77v8.36h92.65v-8.36h-19.77l4.63-12.74ZM295.16,158.86l-.27.47c-9.05,15.44-19.89,25.74-31.78,32.32l-.47.26,4.06,7.25.47-.26c13.35-7.32,25.2-18.53,34.97-35.29l.27-.46-.46-.27-6.78-4.02ZM213.02,176.28c-2.67,5.97-5.76,12.04-9.59,18.01l-.3.46.47.29,6.66,4.13.29-.44c4.19-6.45,7.41-12.79,10.1-19.02l.21-.49-7.61-3.43-.22.5ZM243.91,179.48l10.35,19.46.48-.25,7-3.67-10.35-19.46-7.48,3.92ZM381.17,148.36h-54.98c-6.61,0-11.99,5.38-11.99,11.99v26.53c0,6.61,5.37,11.99,11.99,11.99h54.98c6.61,0,11.99-5.38,11.99-11.99v-26.53c0-6.61-5.38-11.99-11.99-11.99ZM384.8,186.88c-.01,2.07-1.57,3.62-3.63,3.63h-54.98c-2.07,0-3.62-1.57-3.63-3.63v-8.98h62.25v8.98ZM384.8,169.44h-62.25v-9.08c0-2.07,1.57-3.63,3.63-3.63h54.98c2.06,0,3.62,1.57,3.63,3.63v9.08ZM263.47,137.56h-26.1v-3.09h12.19c5.55,0,10.16-4.62,10.17-10.06v-13.8c0-5.55-4.63-10.06-10.17-10.06h-32.84c-5.54,0-10.06,4.52-10.06,10.06v13.8c0,5.44,4.51,10.06,10.06,10.06h12.3v3.09h-26.21v8.36h60.67v-8.36ZM215.01,110.6c.01-1,.7-1.69,1.71-1.7h0s32.84,0,32.84,0c1.02,0,1.81.74,1.82,1.71v2.45h-36.36v-2.45ZM216.72,126.11c-1-.01-1.69-.7-1.71-1.71v-2.88h36.36v2.88c0,.97-.79,1.7-1.81,1.71h-32.84ZM196.58,153.93h-63.55v8.35h63.55v-8.35ZM154.64,184.95v-17.87h-8.36v17.87c0,7.79,6.34,14.02,14.02,14.02h23.33v-8.46h-23.33c-3.14,0-5.66-2.44-5.66-5.56ZM190.25,166.13l-7.58,1.72,6.53,30.9,8.23-1.84-6.65-30.9-.53.12ZM168.98,100.12h-8.35v6.42h-29.95v8.35h29.95v5.23h-18.5c-5.54,0-10.06,4.52-10.06,10.06v9.95c0,5.54,4.52,10.06,10.06,10.06h45.36c5.65,0,9.94-4.54,9.95-10.06v-9.95c0-5.52-4.3-10.05-9.95-10.06h-18.5v-5.23h29.85v-8.36h-29.85v-6.42ZM150.67,141.83h-8.55c-1-.01-1.69-.7-1.71-1.7v-9.95c.01-1,.71-1.69,1.71-1.71h8.55v13.36ZM178.93,128.48h8.55c.87,0,1.59.7,1.6,1.71v9.95c0,1.01-.73,1.7-1.6,1.7h-8.55v-13.36ZM170.57,128.48v13.36h-11.54v-13.36h11.54ZM100.61,47.65l-2.47.15c-.87,0-1.7.09-2.47.27-.77.18-1.47.43-2.08.73-.67.31-1.25.64-1.73,1-.49.36-.94.75-1.35,1.16-.16.16-.31.31-.46.46-.15.15-.28.31-.38.46-.16.15-.27.28-.35.39-.08.1-.17.18-.27.23v-3.63h-6.71v37.03h6.71v-18.13c0-.46.02-1,.08-1.62,0-.57.05-1.16.15-1.78.1-.61.26-1.26.46-1.93.26-.87.61-1.74,1.04-2.58.44-.85.99-1.66,1.66-2.43.72-.77,1.59-1.41,2.62-1.93,1.03-.51,2.26-.9,3.7-1.16h1.85v-6.71ZM125.5,55.51v-6.64h-14.04v-9.1h-7.25v35.37c0,.13.02.25.08.35.1,1.34.37,2.62.81,3.86.44,1.24,1.07,2.39,1.89,3.47.82,1.08,1.88,1.88,3.16,2.39,1.28.51,2.8.77,4.55.77h.54c.05-.05.09-.08.11-.08h9.53v-6.71l-8.56.15c-1.24,0-2.2-.11-2.89-.35-.7-.23-1.15-.6-1.35-1.12-.21-.52-.36-1.06-.47-1.62-.1-.57-.15-1.21-.15-1.93v-18.82h14.04ZM129.9,85.9h6.71v-37.03h-6.71v37.03ZM137.85,40.47c0-.67-.11-1.25-.35-1.74-.23-.49-.58-.91-1.04-1.27-.46-.36-.93-.62-1.39-.77-.46-.16-.98-.23-1.54-.23-.51,0-1.02.09-1.5.27-.49.18-.94.42-1.35.73-.46.36-.8.79-1,1.27-.2.49-.31,1.02-.31,1.58v.15c0,.67.1,1.27.31,1.81.21.54.54.99,1,1.35.46.36.95.62,1.47.77.51.16,1.03.21,1.54.16.51,0,1-.08,1.47-.23.46-.15.93-.41,1.39-.77.41-.36.73-.8.97-1.31.23-.51.35-1.11.35-1.77ZM151.69,63.73c.39-1.21.96-2.22,1.73-3.04.77-.87,1.58-1.6,2.43-2.16.85-.56,1.73-1.03,2.66-1.39.41-.15.82-.28,1.23-.39.41-.1.82-.18,1.24-.23.41-.1.8-.17,1.16-.19.36-.02.72-.09,1.08-.19h5.48v-6.63l-7.25.16c-2.26,0-4.31.31-6.13.92-1.83.62-3.43,1.52-4.82,2.7-1.39,1.18-2.57,2.43-3.55,3.74-.98,1.31-1.75,2.69-2.31,4.13-.26.62-.49,1.22-.69,1.81-.21.59-.36,1.17-.46,1.74-.11.57-.18,1.11-.23,1.62-.05.52-.08.98-.08,1.39v.15c0,.52.03,1.03.08,1.54.05.51.13,1.05.23,1.62.1.57.23,1.15.39,1.74.15.59.33,1.17.54,1.73.51,1.39,1.22,2.73,2.12,4.01.9,1.29,1.99,2.52,3.28,3.7,1.34,1.18,2.92,2.08,4.74,2.7,1.83.62,3.92.95,6.29,1h7.87v-6.71l-5.48.15h-1.08c-1.6,0-2.98-.19-4.17-.58-1.18-.39-2.19-.99-3.01-1.81-.82-.82-1.52-1.68-2.08-2.58-.57-.9-.98-1.84-1.23-2.82-.05-.15-.11-.31-.16-.46-.05-.15-.1-.33-.15-.54,0-.16-.03-.31-.08-.46-.05-.15-.08-.31-.08-.46s-.01-.31-.04-.46c-.03-.15-.04-.31-.04-.46v-.85c0-1.54.19-2.92.58-4.13ZM7.17,68.57h14.73c3.55,0,6.87-.92,9.87-2.93,4.16-2.7,6.25-6.71,6.25-12.11s-2.08-9.33-6.25-12.11c-3.01-1.93-6.32-2.93-9.87-2.93H0v47.13h7.17v-17.05ZM7.17,45.74h14.73c2.31,0,4.24.62,5.94,1.7,2.01,1.46,3.01,3.47,3.01,6.09s-1,4.7-3.01,6.09c-1.7,1.16-3.62,1.7-5.94,1.7H7.17v-15.58ZM58.39,86.51c10.63,0,19.26-8.62,19.26-19.26,0-8.51-5.53-15.72-13.19-18.26,3.15-8.8,8.24-16.85,14.88-23.5,12-12,27.96-18.6,44.92-18.61,16.96,0,32.91,6.61,44.91,18.61,6.64,6.64,11.73,14.7,14.88,23.5-7.66,2.54-13.19,9.75-13.19,18.26,0,10.64,8.62,19.26,19.26,19.26s19.26-8.62,19.26-19.26-8.15-18.74-18.36-19.21C181.49,19.48,154.85,0,124.25,0c-30.6,0-57.25,19.48-66.76,48.05-10.22.47-18.36,8.88-18.36,19.21s8.62,19.26,19.26,19.26ZM202.37,67.26c0,6.78-5.49,12.27-12.26,12.27s-12.26-5.49-12.26-12.27,5.49-12.26,12.26-12.26,12.26,5.49,12.26,12.26ZM58.39,54.99c6.77,0,12.26,5.49,12.26,12.26s-5.49,12.27-12.26,12.27-12.26-5.49-12.26-12.27,5.49-12.26,12.26-12.26ZM359.51,52.5l-7.2,4.19v29.82h7.2v-34.01ZM396.01,57c-2.68-2.45-6.44-3.76-11.34-3.76h-16.17v7.05h16.17c4.52,0,7.2,1.61,8.05,4.83h-13.65c-2.45,0-4.75.69-6.82,2.07-3.07,1.92-4.52,4.83-4.52,8.66s1.46,6.75,4.52,8.66c2.07,1.38,4.37,1.99,6.82,1.99h20.93v-18.93c0-4.45-1.38-7.97-3.99-10.58ZM393.02,79.46h-13.95c-2.91,0-4.29-1.15-4.29-3.6s1.38-3.68,4.29-3.68h13.95v7.28ZM327.29,86.51h16.79v-46.84h-7.05v13.57h-9.74c-4.14,0-7.59,1.38-10.5,3.99-3.45,3.07-5.13,7.28-5.13,12.5s1.68,9.66,5.06,12.72c2.91,2.76,6.44,4.06,10.58,4.06ZM321.54,62.45c1.53-1.38,3.45-2.07,5.75-2.07h9.74v19.01h-9.74c-2.3,0-4.22-.77-5.75-2.3-1.84-1.69-2.76-4.14-2.76-7.36s.92-5.6,2.76-7.28ZM224.65,50.72l15.33,35.8h5.75l15.33-35.8v35.8h7.21v-46.84h-10.27l-15.18,35.34-15.03-35.34h-10.35v46.84h7.2v-35.8ZM291.03,51.79c-5.67,0-10.04,1.99-13.03,5.98-2.45,3.3-3.6,7.21-3.6,11.81,0,11.34,5.83,16.94,17.63,16.94h13.57v-7.05h-13.57c-3.22,0-5.6-.46-7.13-1.46-1.69-.92-2.69-2.61-3.15-5.06h24.53v-3.53c0-3.99-1-7.66-2.91-10.88-2.76-4.45-6.82-6.75-12.34-6.75ZM281.91,65.89c1.23-4.68,4.29-7.05,9.12-7.05,3.99,0,6.59,2.38,7.82,7.05h-16.94Z"/>
  <g>
    <path class="st0" d="M162.77,170.04c0-1.38.98-1.95,2.18-1.26l12.56,7.25c1.2.69,1.2,1.82,0,2.52l-12.56,7.25c-1.2.69-2.18.12-2.18-1.26v-14.5Z"/>
    <g>
      <path class="st1" d="M64.09,67.26c0-3.15-2.56-5.71-5.71-5.71s-5.71,2.56-5.71,5.71,2.56,5.71,5.71,5.71,5.71-2.56,5.71-5.71Z"/>
      <path class="st2" d="M195.81,67.26c0-3.15-2.55-5.71-5.71-5.71s-5.71,2.56-5.71,5.71,2.55,5.71,5.71,5.71,5.71-2.56,5.71-5.71Z"/>
    </g>
    <path class="st0" d="M350.53,40.74c0-.95.67-1.34,1.49-.86l8.59,4.96c.82.47.82,1.25,0,1.72l-8.59,4.96c-.82.47-1.49.09-1.49-.86v-9.92Z"/>
  </g>
</svg>